<svg xmlns="http://www.w3.org/2000/svg" xmlns:xlink="http://www.w3.org/1999/xlink" width="15" height="15" viewBox="0 0 15 15"><defs><style>.a,.c{fill:#f8fbfc;}.a{stroke:#707070;}.b{clip-path:url(#a);}</style><clipPath id="a"><rect class="a" width="15" height="15" transform="translate(358 1494)"/></clipPath></defs><g class="b" transform="translate(-358 -1494)"><path class="c" d="M14.649.267a.894.894,0,0,1,.113,1.324L5.508,10.957a.7.7,0,0,1-.677.281,1.117,1.117,0,0,1-.677-.331L.2,6.225A.989.989,0,0,1,.317,4.9a.974.974,0,0,1,1.354.113l3.273,3.9L13.407.282A.84.84,0,0,1,14.649.267Z" transform="translate(357.997 1495.876)"/></g></svg>