<svg xmlns="http://www.w3.org/2000/svg" xmlns:xlink="http://www.w3.org/1999/xlink" width="32" height="32" viewBox="0 0 32 32"><defs><style>.a,.c{fill:#f8fbfc;}.a{stroke:#707070;}.b{clip-path:url(#a);}</style><clipPath id="a"><rect class="a" width="32" height="32" transform="translate(925 968)"/></clipPath></defs><g class="b" transform="translate(-925 -968)"><path class="c" d="M8,32a1.615,1.615,0,0,1-1.135-.472l-4.8-4.8A1.6,1.6,0,0,1,3.2,24a1.565,1.565,0,0,1,1.12.468L8,28.131l3.663-3.663a1.6,1.6,0,0,1,2.275,2.263l-4.819,4.8A1.556,1.556,0,0,1,8,32Zm0-9.6a8.01,8.01,0,0,1-8-8V8A8,8,0,0,1,16,8v6.4a8.01,8.01,0,0,1-8,8ZM8,3.2A4.806,4.806,0,0,0,3.2,8v6.4a4.8,4.8,0,0,0,9.6,0V8A4.806,4.806,0,0,0,8,3.2ZM8,12a1.6,1.6,0,0,1-1.6-1.6V8A1.6,1.6,0,1,1,9.6,8v2.4A1.6,1.6,0,0,1,8,12Z" transform="translate(933 968)"/></g></svg>